<?xml version="1.0" standalone="no"?><!DOCTYPE svg PUBLIC "-//W3C//DTD SVG 1.1//EN" "http://www.w3.org/Graphics/SVG/1.1/DTD/svg11.dtd"><svg t="1542481246029" class="icon" style="" viewBox="0 0 1024 1024" version="1.1" xmlns="http://www.w3.org/2000/svg" p-id="2316" xmlns:xlink="http://www.w3.org/1999/xlink" width="200" height="200"><defs><style type="text/css"></style></defs><path d="M918.505502 240.82889c-61.488227-29.036107-56.364208-6.832025-56.364208-6.832025-3.416013 3.416013-20.496076-1.708006-20.496076-1.708006-35.868133-22.204082-75.152278-8.540032-75.152277-8.540032-20.496076 6.832025-18.788069 80.276297-18.78807 80.276297-1.708006 8.540032-18.788069 13.664051-18.788069 13.66405-13.664051-8.540032-126.392467-49.532183-126.392467-49.532183-30.744114-10.248038-105.896391-10.248038-105.896392-10.248038-49.532183-47.824177-150.304556-68.320253-150.304555-68.320252 3.416013-5.124019 1.708006-11.956044 1.708006-11.956044 3.416013-11.956044 20.496076-8.540032 20.496076-8.540032 0-8.540032-1.708006-11.956044-1.708007-11.956044 11.956044 11.956044 15.372057-10.248038 15.372057-10.248038-3.416013-15.372057-17.080063-23.912088-17.080063-23.912088 6.832025 0 25.620095 29.036107 10.248038 0 0 0 0-1.708006-1.708006-1.708007-15.372057-25.620095-37.576139-23.912088-37.576139-23.912088 0-5.124019-6.832025-20.496076-6.832025-20.496076-3.416013-8.540032 29.036107-13.664051 29.036107-13.66405-11.956044-11.956044-40.992152 1.708006-40.992152 1.708006s3.416013 6.832025-1.708006 1.708006c-5.124019-5.124019 6.832025-13.664051 6.832025-13.66405 6.832025-10.248038-3.416013-10.248038-3.416012-10.248038 0 8.540032-13.664051 5.124019-13.664051 5.124019-8.540032-3.416013-1.708006-8.540032-1.708006-8.540032-8.540032-5.124019 5.124019-17.080063 5.124019-17.080063-18.788069 5.124019-29.036107 73.444271-29.036108 73.444272l-17.080063-1.708007c-81.984303-13.664051-81.984303 29.036107-81.984303 29.036108-22.204082 6.832025-25.620095 51.240189-25.620094 51.240189-6.832025 3.416013 1.708006 17.080063 1.708006 17.080063-10.248038 0-5.124019 46.11617-5.124019 46.116171C69.626365 293.777086 120.866554 379.177401 120.866554 379.177401c-6.832025 23.912088 11.956044 88.816328 11.956045 88.816329 11.956044 13.664051 15.372057 54.656202 15.372056 54.656202 10.248038 46.11617 78.56829 90.524335 78.568291 90.524334-1.708006 6.832025 6.832025 13.664051 6.832025 13.664051-10.248038 8.540032 42.700158 122.976455 42.700158 122.976454 37.576139 68.320253 27.328101 141.764524 27.328101 141.764524-6.832025-1.708006-5.124019 27.328101-5.124019 27.328101-11.956044 3.416013-35.868133 40.992152-35.868133 40.992152s0-1.708006-1.708006 1.708006c-1.708006 5.124019-29.036107 23.912088-29.036107 23.912089-27.328101 8.540032-18.788069 29.036107-18.78807 29.036107 11.956044 22.204082 133.224492-1.708006 133.224493-1.708006 1.708006-3.416013 3.416013-8.540032 3.416012-8.540032 18.788069 3.416013 49.532183-25.620095 49.532183-25.620095 6.832025-11.956044-5.124019-39.284145-5.124019-39.284145-6.832025-8.540032-10.248038-35.868133-10.248037-35.868132-6.832025-13.664051-15.372057-17.080063-15.372057-17.080064 3.416013-15.372057-6.832025-133.224492-6.832026-133.224492 10.248038-46.11617-8.540032-64.90424-8.540031-64.90424 3.416013-1.708006 1.708006-10.248038 1.708006-10.248038 20.496076 20.496076 27.328101-1.708006 27.328101-1.708006 6.832025 3.416013 75.152278 8.540032 75.152278 8.540031 39.284145-3.416013 160.552593 70.028259 160.552593 70.028259 126.392467 76.860284 215.208795 22.204082 215.208796 22.204082 56.364208-58.072215-27.328101-117.852436-27.328101-117.852435-119.560442-75.152278-247.660915-11.956044-264.740979-6.832025-15.372057 5.124019-81.984303 5.124019-81.984303 5.124018-15.372057-5.124019-100.772372-20.496076-100.772372-20.496075-3.416013-8.540032-11.956044-18.788069-11.956044-18.78807 0-5.124019 25.620095-23.912088 25.620094-23.912088 27.328101-10.248038 95.648354-78.56829 95.648354-78.56829 6.832025 13.664051 83.692309 52.948196 83.692309 52.948195 10.248038 11.956044 40.992152 15.372057 40.992152 15.372057 22.204082 0 102.480379-128.100473 102.480378-128.100473 15.372057-20.496076 54.656202-68.320253 54.656203-68.320253 1.708006 1.708006 15.372057 0 15.372056 0-1.708006 8.540032 34.160126 32.45212 34.160127 32.45212 8.540032 0 27.328101 11.956044 27.328101 11.956044 13.664051 15.372057 11.956044-6.832025 11.956044-6.832025 6.832025 0 35.868133 13.664051 35.868132 13.66405 10.248038 6.832025 17.080063-5.124019 17.080063-5.124019 10.248038 6.832025 1.708006-10.248038 1.708007-10.248037l-34.160126-27.328101c3.416013-1.708006 30.744114 6.832025 30.744113 6.832025 17.080063 1.708006 1.708006-8.540032 1.708006-8.540032L853.601263 375.761389c1.708006-1.708006 32.45212 1.708006 32.45212 1.708006 13.664051-6.832025-42.700158-17.080063-42.700158-17.080063-6.832025-5.124019-29.036107-13.664051-29.036108-13.66405 6.832025-1.708006 15.372057-10.248038 15.372057-10.248038 5.124019 0 6.832025 3.416013 6.832025 3.416012 6.832025 1.708006 42.700158-17.080063 42.700158-17.080063 11.956044 3.416013 44.408164-8.540032 44.408164-8.540031 11.956044-6.832025 51.240189 1.708006 51.24019 1.708006 75.152278-13.664051-56.364208-75.152278-56.364209-75.152278zM505.167975 678.078506c15.372057 1.708006 70.028259-29.036107 54.656202-11.956044-10.248038 11.956044-1.708006 30.744114 3.416012 35.868133l1.708007 1.708006c1.708006 3.416013 1.708006 1.708006-1.708007-1.708006-6.832025-8.540032-47.824177-20.496076-58.072214-23.912089h-3.416013c1.708006-1.708006 1.708006-1.708006 3.416013 0z m-261.324966-117.852435c-5.124019-17.080063-27.328101-46.11617-27.328101-46.116171-11.956044-8.540032-15.372057-30.744114-15.372057-30.744113 1.708006-34.160126-11.956044-97.35636-11.956044-97.35636 5.124019 10.248038 13.664051 0 13.66405 0 35.868133 66.612246 80.276297 10.248038 80.276297 10.248038 6.832025 20.496076 71.736265 18.788069 71.736265 18.788069v11.956044c-25.620095-1.708006-111.02041 133.224492-111.02041 133.224493z m351.8493-145.180537c0-1.708006 5.124019-10.248038 5.124019-10.248038-1.708006-10.248038-37.576139-46.11617-37.576139-46.11617 6.832025-15.372057-1.708006-23.912088-1.708006-23.912089 1.708006 1.708006 8.540032-3.416013 13.664051-6.832025 5.124019-3.416013 20.496076 1.708006 20.496075 1.708006 1.708006 10.248038 81.984303 29.036107 81.984303 29.036108-37.576139 1.708006-81.984303 56.364208-81.984303 56.364208z" p-id="2317" fill="#1296db"></path></svg>