<?xml version="1.0" standalone="no"?><!DOCTYPE svg PUBLIC "-//W3C//DTD SVG 1.1//EN" "http://www.w3.org/Graphics/SVG/1.1/DTD/svg11.dtd"><svg t="1542481196695" class="icon" style="" viewBox="0 0 1024 1024" version="1.1" xmlns="http://www.w3.org/2000/svg" p-id="1382" xmlns:xlink="http://www.w3.org/1999/xlink" width="200" height="200"><defs><style type="text/css"></style></defs><path d="M493.3 591.9c-29.2 0-57.1-7.2-81.9-21.5-46.3-26.8-76.4-75-84.6-135.9-8.1-60 6.1-125.2 39.8-183.6l8.5 4.9-8.5-4.9c33.7-58.4 83.1-103.3 139.1-126.3 56.8-23.4 113.7-21.5 160 5.3s76.4 75 84.6 135.9c8.1 60-6.1 125.2-39.8 183.6s-83.1 103.3-139.1 126.3c-26.3 10.7-52.7 16.2-78.1 16.2z m90.5-464c-22.8 0-46.7 4.9-70.6 14.7-52 21.4-98 63.3-129.6 118s-44.9 115.5-37.4 171.2c7.4 54.8 34 97.9 75 121.6 41 23.7 91.7 25.1 142.8 4.1 52-21.4 98-63.3 129.6-118 31.6-54.7 44.9-115.5 37.4-171.2-7.4-54.8-34-97.9-75-121.6-21.8-12.5-46.3-18.8-72.2-18.8z" fill="#515151" p-id="1383"></path><path d="M359.2 749.8l-78-46.1 4.1-8.2c24.5-48.4 34-101.4 26.7-149.2-1.8-11.9-4.7-23.5-8.5-34.3l-5-13.9h0.3c-1.2-3.5-2.4-7.1-3.2-9.9-11.3-38.3-14-81.5-7.8-125 6.5-45.4 22-89.6 46.1-131.4 40-69.2 98.6-122.2 165.1-149.2 67.4-27.4 134.8-24.9 189.9 6.9 55.1 31.8 90.9 89 100.9 161 9.9 71.1-6.7 148.4-46.7 217.6-26.9 46.6-63.1 86.7-104.7 116-40.4 28.4-84.8 46-128.5 50.7-55.9 11.8-109 50.9-145.6 107.2l-5.1 7.8z m-52.3-53.6l46.3 27.4c39.3-56.6 94.8-95.8 153.4-107.9l1-0.1c84.2-9 168-69.1 218.8-157.1 77.5-134.3 56.4-292.2-47.1-351.9-49.7-28.7-111.1-30.7-172.8-5.7C444 126.1 388.7 176.2 351 241.6c-22.8 39.6-37.5 81.4-43.7 124.4-5.8 40.8-3.3 81.1 7.2 116.7 1.3 4.4 3.7 11.3 5.4 16.4 0.6 1.9 1.2 3.5 1.6 4.7 0.2 0.6 0.4 1.3 0.6 2 4.2 11.9 7.3 24.5 9.3 37.6 7.5 49.1-1.2 103-24.5 152.8z" fill="#515151" p-id="1384"></path><path d="M343.2 697.6c-1.7 0-3.3-0.4-4.9-1.3-4.5-2.6-6.2-8.3-3.8-12.9 20.7-40.7 24.9-80.3 13.2-124.7-1.2-4.5 0.9-9.1 5-11.2 4.1-2.1 9.1-1 12 2.5 10.9 13.4 23.8 24.4 38.5 32.9 15.2 8.8 31.8 14.5 49.6 17.2 4.6 0.7 8.1 4.5 8.3 9.1 0.3 4.6-2.8 8.8-7.3 10-44.7 11.8-77.3 35.3-102.4 74-1.9 2.8-5 4.4-8.2 4.4z m29.4-112.2c2.1 19 1.3 37.4-2.4 55.6 14-12.4 29.6-22.3 47.1-29.9-8.3-3.1-16.3-6.8-24-11.3-7.3-4.2-14.2-9-20.7-14.4zM228.4 960.3c-3.4 0-6.7-0.9-9.7-2.6l-46.4-26.8c-4.5-2.6-7.7-6.8-9.1-11.8-1.3-5-0.7-10.3 1.9-14.8l125.6-217.5 80.1 46.2-125.5 217.5c-2.6 4.5-6.8 7.7-11.8 9.1-1.7 0.4-3.4 0.7-5.1 0.7zM182.2 914l46.2 26.7 115.8-200.5-46.2-26.7L182.2 914z" fill="#515151" p-id="1385"></path><path d="M272.1 741.12l4.9-8.487 61.054 35.25-4.9 8.486zM506.208 141.772l4.9-8.487 233.127 134.6-4.9 8.487zM448.237 178.29l4.9-8.487 285.26 164.7-4.9 8.487zM403.619 222.658l4.9-8.487 312.886 180.65-4.9 8.487zM373.244 275.148l4.9-8.487 312.886 180.65-4.9 8.487zM350.074 331.889l4.9-8.487 305.698 176.5-4.9 8.487zM329.416 390.013l4.9-8.487 279.199 161.2-4.9 8.487z" fill="#515151" p-id="1386"></path><path d="M337.028 455.141l191.75-332.11 8.486 4.9-191.75 332.11zM368.464 519.27l228.45-395.675 8.486 4.9L376.95 524.17zM413.319 560.162l241.65-418.538 8.487 4.9-241.65 418.538zM471.101 578.562l229.35-397.235 8.487 4.9-229.35 397.235zM543.854 571.167l186.95-323.797 8.487 4.9-186.95 323.797z" fill="#515151" p-id="1387"></path><path d="M786 872.5c-6.6 0-13.3-0.9-19.9-2.7-19.5-5.3-35.7-17.8-45.7-35.3-20.7-36.1-8.2-82.3 27.9-103 36.1-20.7 82.3-8.2 103 27.9 20.7 36.1 8.2 82.3-27.9 103-11.5 6.7-24.4 10.1-37.4 10.1z m-0.2-131.4c-9.4 0-19 2.4-27.7 7.4-26.7 15.3-36 49.6-20.7 76.3 7.4 13 19.5 22.2 33.9 26.2 14.4 3.9 29.5 2 42.4-5.5 13-7.4 22.2-19.5 26.2-33.9 3.9-14.4 2-29.5-5.5-42.4-10.3-18-29.2-28.1-48.6-28.1z" fill="#515151" p-id="1388"></path><path d="M785 837.2c-14.5 0-28.6-7.5-36.3-21l8.5-4.9c8.8 15.3 28.4 20.6 43.7 11.8 15.3-8.8 20.6-28.4 11.8-43.7l8.5-4.9c11.5 20 4.5 45.5-15.5 57-6.5 3.9-13.6 5.7-20.7 5.7z" fill="#515151" p-id="1389"></path><path d="M748.7 816.2c-6.1-10.6-17.9-16.8-30-16l-0.7-9.8c15.9-1.1 31.3 7.1 39.2 20.9l-8.5 4.9z" fill="#515151" p-id="1390"></path><path d="M785 837.2c-14.5 0-28.6-7.5-36.3-21l8.5-4.9c8.8 15.3 28.4 20.6 43.7 11.8 7.4-4.2 12.7-11.1 15-19.4 2.2-8.2 1.1-16.9-3.1-24.3-5.5-9.6-15.4-15.6-26.5-16.1h-0.1c-13.8-0.9-26.3-8.9-33.5-21.4l8.5-4.9c5.4 9.4 15.2 15.8 25.6 16.5 14.4 0.6 27.4 8.4 34.5 21 5.5 9.7 7 20.9 4.1 31.7-2.9 10.8-9.9 19.8-19.5 25.3-6.7 3.9-13.8 5.7-20.9 5.7z" fill="#515151" p-id="1391"></path><path d="M720.6 682c-3.4 0-6.7-1.8-8.5-4.9l-41.6-72.8c-2.7-4.7-1.1-10.7 3.6-13.3 4.7-2.7 10.7-1.1 13.3 3.6l41.6 72.8c2.7 4.7 1.1 10.7-3.6 13.3-1.5 0.8-3.2 1.3-4.8 1.3z" fill="#515151" p-id="1392"></path><path d="M769.8 694c-3.4 0-6.7-1.8-8.5-4.9l-20.8-36.4c-2.7-4.7-1.1-10.7 3.6-13.3 4.7-2.7 10.7-1.1 13.3 3.6l20.8 36.4c2.7 4.7 1.1 10.7-3.6 13.3-1.4 0.9-3.1 1.3-4.8 1.3z" fill="#515151" p-id="1393"></path></svg>